<svg width="122" height="36" viewBox="0 0 122 36" fill="none" xmlns="http://www.w3.org/2000/svg">
<path d="M117.177 36H4.2561C1.9098 36 0 34.0848 0 31.7403V4.2534C0 1.908 1.9098 0 4.2561 0H117.177C119.523 0 121.5 1.908 121.5 4.2534V31.7403C121.5 34.0848 119.523 36 117.177 36Z" fill="#C0C1C1"/>
<path d="M120.629 31.7412C120.629 33.6456 119.086 35.1882 117.178 35.1882H4.25588C2.34878 35.1882 0.800781 33.6456 0.800781 31.7412V4.25253C0.800781 2.34903 2.34878 0.801025 4.25588 0.801025H117.177C119.086 0.801025 120.629 2.34903 120.629 4.25253V31.7412Z" fill="black"/>
<path d="M40.1374 6.53845C40.5253 6.53845 40.8952 6.61759 41.2481 6.76471C41.6 6.91295 41.8864 7.11357 42.0939 7.36101L41.6225 7.83135C41.2605 7.40893 40.7677 7.20051 40.1374 7.20051C39.569 7.20051 39.0762 7.39667 38.6578 7.79234C38.244 8.18913 38.0365 8.70295 38.0365 9.3338C38.0365 9.96464 38.244 10.4829 38.6578 10.8797C39.0762 11.2709 39.569 11.4715 40.1374 11.4715C40.7407 11.4715 41.2481 11.2709 41.6485 10.8752C41.9123 10.6133 42.0623 10.2522 42.1018 9.79077H40.1374V9.14655H42.7581C42.7897 9.28587 42.7987 9.42073 42.7987 9.55114C42.7987 10.2957 42.5732 10.892 42.1289 11.3367C41.618 11.8639 40.9527 12.1291 40.1374 12.1291C39.3581 12.1291 38.6928 11.8594 38.147 11.3278C37.6001 10.7883 37.3271 10.1263 37.3271 9.3338C37.3271 8.54134 37.6001 7.87928 38.147 7.34429C38.6928 6.80818 39.3581 6.53845 40.1374 6.53845ZM64.4447 6.53845C65.2285 6.53845 65.8893 6.80818 66.4227 7.3532C66.9595 7.89711 67.2245 8.55471 67.2245 9.3338C67.2245 10.1173 66.9595 10.7794 66.4272 11.3188C65.8938 11.8594 65.233 12.1291 64.4447 12.1291C63.652 12.1291 62.9911 11.8594 62.4578 11.3188C61.9255 10.7794 61.6605 10.1173 61.6605 9.3338C61.6605 8.55025 61.9255 7.8882 62.4578 7.34875C62.9911 6.80818 63.652 6.53845 64.4447 6.53845ZM46.9565 6.66106V7.31754H44.4948V9.01169H46.7141V9.65591H44.4948V11.3501H46.9565V12.0065H43.7978V6.66106H46.9565ZM51.4019 6.66106V7.31754H49.8908V12.0065H49.1938V7.31754H47.6839V6.66106H51.4019ZM54.7883 6.66106V12.0065H54.0925V6.66106H54.7883ZM59.3882 6.66106V7.31754H57.8726V12.0065H57.1813V7.31754H55.6657V6.66106H59.3882ZM69.048 6.66106L71.6778 10.8184H71.7082L71.6778 9.79077V6.66106H72.3735V12.0065H71.6473L68.8935 7.64411H68.863L68.8935 8.6762V12.0065H68.2022V6.66106H69.048ZM64.4447 7.19605C63.8629 7.19605 63.3746 7.39667 62.9731 7.7968C62.5728 8.19693 62.3698 8.71075 62.3698 9.3338C62.3698 9.95684 62.5728 10.4707 62.9731 10.8708C63.3746 11.2709 63.8629 11.4715 64.4447 11.4715C65.0221 11.4715 65.5149 11.2709 65.9119 10.8708C66.3122 10.4707 66.5152 9.95684 66.5152 9.3338C66.5152 8.71075 66.3122 8.19693 65.9119 7.7968C65.5149 7.39667 65.0221 7.19605 64.4447 7.19605Z" fill="white" stroke="white" stroke-width="0.625"/>
<path d="M61.4897 19.8128C59.3708 19.8128 57.6398 21.4067 57.6398 23.6057C57.6398 25.7869 59.3708 27.3975 61.4897 27.3975C63.6132 27.3975 65.3442 25.7869 65.3442 23.6057C65.3442 21.4067 63.6132 19.8128 61.4897 19.8128ZM61.4897 25.904C60.3271 25.904 59.3268 24.9555 59.3268 23.6057C59.3268 22.2381 60.3271 21.3063 61.4897 21.3063C62.6524 21.3063 63.6572 22.2381 63.6572 23.6057C63.6572 24.9555 62.6524 25.904 61.4897 25.904ZM53.0896 19.8128C50.9661 19.8128 49.2396 21.4067 49.2396 23.6057C49.2396 25.7869 50.9661 27.3975 53.0896 27.3975C55.2119 27.3975 56.9395 25.7869 56.9395 23.6057C56.9395 21.4067 55.2119 19.8128 53.0896 19.8128ZM53.0896 25.904C51.9258 25.904 50.9221 24.9555 50.9221 23.6057C50.9221 22.2381 51.9258 21.3063 53.0896 21.3063C54.2522 21.3063 55.2525 22.2381 55.2525 23.6057C55.2525 24.9555 54.2522 25.904 53.0896 25.904ZM43.0937 20.9753V22.587H46.9876C46.8737 23.4876 46.5693 24.1496 46.1024 24.611C45.534 25.1683 44.6488 25.7869 43.0937 25.7869C40.6974 25.7869 38.8209 23.8754 38.8209 21.507C38.8209 19.1385 40.6974 17.227 43.0937 17.227C44.3894 17.227 45.3322 17.7275 46.028 18.3761L47.1771 17.2404C46.2039 16.322 44.9093 15.6165 43.0937 15.6165C39.8076 15.6165 37.0459 18.2591 37.0459 21.507C37.0459 24.7548 39.8076 27.3975 43.0937 27.3975C44.8698 27.3975 46.2039 26.8224 47.2526 25.7435C48.3273 24.6813 48.6622 23.1877 48.6622 21.9818C48.6622 21.6073 48.6307 21.2629 48.5743 20.9753H43.0937ZM83.968 22.2248C83.6511 21.3766 82.6734 19.8128 80.6819 19.8128C78.7085 19.8128 77.0654 21.3498 77.0654 23.6057C77.0654 25.7301 78.6915 27.3975 80.8714 27.3975C82.634 27.3975 83.6511 26.3353 84.0695 25.7167L82.7614 24.8551C82.325 25.486 81.7307 25.904 80.8714 25.904C80.0177 25.904 79.4054 25.5172 79.0129 24.7548L84.1451 22.6561L83.968 22.2248ZM78.7355 23.4876C78.6915 22.0252 79.8846 21.2763 80.7394 21.2763C81.4093 21.2763 81.9776 21.6073 82.1671 22.081L78.7355 23.4876ZM74.5642 27.1668H76.2512V16.0211H74.5642V27.1668ZM71.8013 20.6577H71.745C71.3661 20.2141 70.6432 19.8128 69.7275 19.8128C67.8059 19.8128 66.049 21.4802 66.049 23.618C66.049 25.7435 67.8059 27.3975 69.7275 27.3975C70.6432 27.3975 71.3661 26.9929 71.745 26.5359H71.8013V27.0798C71.8013 28.5299 71.0176 29.309 69.7535 29.309C68.7228 29.309 68.0833 28.5733 67.8195 27.9548L66.3523 28.56C66.7752 29.5653 67.895 30.8025 69.7535 30.8025C71.7314 30.8025 73.4004 29.6523 73.4004 26.8536V20.0435H71.8013V20.6577ZM69.8719 25.904C68.7092 25.904 67.736 24.9421 67.736 23.618C67.736 22.2816 68.7092 21.3063 69.8719 21.3063C71.0176 21.3063 71.9209 22.2816 71.9209 23.618C71.9209 24.9421 71.0176 25.904 69.8719 25.904ZM91.8664 16.0211H87.8315V27.1668H89.514V22.9437H91.8664C93.7349 22.9437 95.5674 21.6073 95.5674 19.4818C95.5674 17.3574 93.7304 16.0211 91.8664 16.0211ZM91.9103 21.3933H89.514V17.5714H91.9103C93.1666 17.5714 93.8838 18.6024 93.8838 19.4818C93.8838 20.3445 93.1666 21.3933 91.9103 21.3933ZM102.311 19.7916C101.095 19.7916 99.8312 20.3222 99.3114 21.4981L100.804 22.1166C101.126 21.4981 101.717 21.2974 102.341 21.2974C103.214 21.2974 104.1 21.8157 104.113 22.7308V22.8478C103.809 22.6739 103.157 22.4165 102.355 22.4165C100.747 22.4165 99.1084 23.2914 99.1084 24.9242C99.1084 26.4178 100.426 27.3796 101.906 27.3796C103.038 27.3796 103.663 26.8747 104.056 26.2874H104.113V27.1489H105.738V22.8734C105.738 20.8973 104.245 19.7916 102.311 19.7916ZM102.108 25.8995C101.558 25.8995 100.791 25.6298 100.791 24.9555C100.791 24.0928 101.747 23.7617 102.575 23.7617C103.316 23.7617 103.663 23.9234 104.113 24.1362C103.981 25.1683 103.082 25.8995 102.108 25.8995ZM111.658 20.0357L109.724 24.8674H109.667L107.668 20.0357H105.853L108.857 26.7878L107.143 30.545H108.901L113.53 20.0357H111.658ZM96.4921 27.1668H98.1792V16.0211H96.4921V27.1668Z" fill="white"/>
<path d="M9.43595 7.13906C9.17094 7.41325 9.01758 7.84013 9.01758 8.39295V28.1119C9.01758 28.6648 9.17094 29.0917 9.43595 29.3658L9.50136 29.426L20.6813 18.3806V18.1198L9.50136 7.07442L9.43595 7.13906Z" fill="url(#paint0_linear_11125_8470)"/>
<path d="M24.4041 22.0642L20.6816 18.3806V18.1197L24.4087 14.4361L24.4921 14.484L28.9059 16.9662C30.1655 17.6706 30.1655 18.8297 28.9059 19.5386L24.4921 22.0163L24.4041 22.0642Z" fill="url(#paint1_linear_11125_8470)"/>
<path d="M24.4914 22.0165L20.6809 18.2504L9.43555 29.366C9.85392 29.8007 10.5362 29.853 11.312 29.4184L24.4914 22.0165Z" fill="url(#paint2_linear_11125_8470)"/>
<path d="M24.4914 14.4842L11.312 7.08237C10.5362 6.65214 9.85392 6.70453 9.43555 7.13921L20.6809 18.2504L24.4914 14.4842Z" fill="url(#paint3_linear_11125_8470)"/>
<defs>
<linearGradient id="paint0_linear_11125_8470" x1="16.1672" y1="28.3173" x2="6.60011" y2="18.8615" gradientUnits="userSpaceOnUse">
<stop stop-color="#00A0FF"/>
<stop offset="0.0066" stop-color="#00A1FF"/>
<stop offset="0.2601" stop-color="#00BEFF"/>
<stop offset="0.5122" stop-color="#00D2FF"/>
<stop offset="0.7604" stop-color="#00DFFF"/>
<stop offset="1" stop-color="#00E3FF"/>
</linearGradient>
<linearGradient id="paint1_linear_11125_8470" x1="30.5461" y1="18.2489" x2="8.71684" y2="18.2489" gradientUnits="userSpaceOnUse">
<stop stop-color="#FFE000"/>
<stop offset="0.4087" stop-color="#FFBD00"/>
<stop offset="0.7754" stop-color="#FFA500"/>
<stop offset="1" stop-color="#FF9C00"/>
</linearGradient>
<linearGradient id="paint2_linear_11125_8470" x1="22.4193" y1="19.4692" x2="6.1461" y2="3.38526" gradientUnits="userSpaceOnUse">
<stop stop-color="#FF3A44"/>
<stop offset="1" stop-color="#C31162"/>
</linearGradient>
<linearGradient id="paint3_linear_11125_8470" x1="6.60486" y1="26.0925" x2="13.8699" y2="18.9121" gradientUnits="userSpaceOnUse">
<stop stop-color="#32A071"/>
<stop offset="0.0685" stop-color="#2DA771"/>
<stop offset="0.4762" stop-color="#15CF74"/>
<stop offset="0.8009" stop-color="#06E775"/>
<stop offset="1" stop-color="#00F076"/>
</linearGradient>
</defs>
</svg>
