<svg width="120" height="36" viewBox="0 0 120 36" fill="none" xmlns="http://www.w3.org/2000/svg">
<path d="M115.369 36H4.19042C1.88033 36 0 34.0848 0 31.7403V4.2534C0 1.908 1.88033 0 4.19042 0H115.369C117.678 0 119.625 1.908 119.625 4.2534V31.7403C119.625 34.0848 117.678 36 115.369 36V36Z" fill="#C0C1C1"/>
<path d="M118.768 31.7411C118.768 33.6455 117.249 35.1881 115.37 35.1881H4.19084C2.31317 35.1881 0.789062 33.6455 0.789062 31.7411V4.2524C0.789062 2.3489 2.31317 0.800903 4.19084 0.800903H115.369C117.249 0.800903 118.767 2.3489 118.767 4.2524L118.768 31.7411V31.7411Z" fill="black"/>
<path d="M26.6957 17.8056C26.67 14.9049 29.0341 13.4937 29.1422 13.428C27.8033 11.4453 25.7281 11.1744 24.9988 11.1528C23.2558 10.9665 21.5651 12.2121 20.6772 12.2121C19.7716 12.2121 18.4043 11.1708 16.9307 11.2014C15.0345 11.2311 13.2605 12.3462 12.2875 14.0778C10.2796 17.6085 11.7771 22.797 13.7009 25.6509C14.6632 27.0486 15.7877 28.6092 17.2595 28.5543C18.6994 28.494 19.2373 27.6219 20.975 27.6219C22.6967 27.6219 23.2018 28.5543 24.7028 28.5192C26.2482 28.494 27.2212 27.1152 28.1498 25.7049C29.2619 24.1029 29.7085 22.5252 29.7262 22.4442C29.6899 22.4316 26.7249 21.2823 26.6957 17.8056Z" fill="white"/>
<path d="M23.859 9.27544C24.6335 8.29174 25.1634 6.95344 25.0163 5.59534C23.8953 5.64574 22.4935 6.38284 21.6863 7.34494C20.9721 8.19274 20.3341 9.58234 20.4989 10.8891C21.758 10.9845 23.0509 10.2438 23.859 9.27544Z" fill="white"/>
<path fill-rule="evenodd" clip-rule="evenodd" d="M45.5242 28.3534H47.5365L43.7218 16.3762H41.3772L37.5811 28.3534H39.5402L40.5903 24.8353H44.4218L45.5242 28.3534ZM43.093 20.2318L44.0899 23.3593H40.9238L41.903 20.2318C42.16 19.2373 42.3469 18.4849 42.463 17.9755H42.4984C42.79 19.1599 42.9876 19.9123 43.093 20.2318Z" fill="white"/>
<path fill-rule="evenodd" clip-rule="evenodd" d="M56.1256 27.4113C56.9071 26.559 57.2979 25.398 57.2979 23.9292C57.2979 22.6143 56.963 21.5541 56.2913 20.7477C55.6214 19.9422 54.784 19.5399 53.781 19.5399C52.4979 19.5399 51.5417 20.0547 50.9117 21.0861H50.8763L50.7708 19.7172H49.1094C49.1555 20.6892 49.1794 21.6369 49.1794 22.5603V31.8726H51.0686V27.3231H51.104C51.594 28.1403 52.3986 28.5489 53.5187 28.5489C54.5563 28.5489 55.4256 28.17 56.1256 27.4113ZM54.8132 21.9206C55.1871 22.466 55.3732 23.159 55.3732 23.9996C55.3732 24.9122 55.1747 25.6466 54.7777 26.2037C54.3816 26.7599 53.8278 27.0389 53.1163 27.0389C52.5102 27.0389 52.0175 26.8229 51.6382 26.39C51.259 25.9571 51.0693 25.427 51.0693 24.7988V23.3588C51.0693 23.2058 51.0986 23.0114 51.1571 22.7738C51.2731 22.2644 51.5213 21.8531 51.9005 21.5381C52.2789 21.2258 52.7024 21.0674 53.1685 21.0674C53.8562 21.0674 54.4047 21.3518 54.8132 21.9206Z" fill="white"/>
<path fill-rule="evenodd" clip-rule="evenodd" d="M65.9041 27.4113C66.6865 26.559 67.0773 25.398 67.0773 23.9292C67.0773 22.6143 66.7415 21.5541 66.0725 20.7477C65.4008 19.9422 64.5634 19.5399 63.5612 19.5399C62.2773 19.5399 61.3211 20.0547 60.692 21.0861H60.6566L60.5511 19.7172H58.8896C58.9357 20.6892 58.9597 21.6369 58.9597 22.5603V31.8726H60.8488V27.3231H60.8843C61.3734 28.1403 62.178 28.5489 63.2981 28.5489C64.3357 28.5489 65.205 28.17 65.9041 27.4113ZM64.5925 21.9206C64.9665 22.466 65.1535 23.159 65.1535 23.9996C65.1535 24.9122 64.955 25.6466 64.558 26.2037C64.1619 26.7599 63.6081 27.0389 62.8965 27.0389C62.2887 27.0389 61.796 26.822 61.4167 26.39C61.0392 25.9571 60.8496 25.427 60.8496 24.7988V23.3588C60.8496 23.2058 60.8797 23.0114 60.9373 22.7738C61.0534 22.2644 61.3006 21.8531 61.6799 21.5381C62.0592 21.2258 62.4818 21.0674 62.9488 21.0674C63.6373 21.0674 64.184 21.3518 64.5925 21.9206Z" fill="white"/>
<path d="M78.013 24.9947C78.013 26.0135 77.6648 26.8424 76.9656 27.4823C76.1974 28.1816 75.1278 28.5308 73.7535 28.5308C72.4846 28.5308 71.4673 28.2824 70.6973 27.7847L71.135 26.1854C71.9644 26.6948 72.8744 26.9504 73.866 26.9504C74.5775 26.9504 75.1314 26.7866 75.5292 26.4608C75.9253 26.135 76.1229 25.6976 76.1229 25.1522C76.1229 24.6662 75.9599 24.2567 75.6329 23.9246C75.3077 23.5925 74.7645 23.2838 74.006 22.9985C71.9414 22.2164 70.9099 21.0707 70.9099 19.5641C70.9099 18.5795 71.2715 17.7722 71.9954 17.144C72.7167 16.5149 73.679 16.2008 74.8824 16.2008C75.9554 16.2008 76.8469 16.3907 77.5584 16.7696L77.0861 18.3338C76.4215 17.9666 75.6701 17.783 74.8292 17.783C74.1646 17.783 73.6454 17.9495 73.2732 18.2807C72.9586 18.5768 72.8009 18.9377 72.8009 19.3652C72.8009 19.8386 72.9808 20.2301 73.3423 20.5379C73.6569 20.8223 74.2284 21.1301 75.0578 21.4622C76.0724 21.8771 76.8176 22.3622 77.297 22.9184C77.7746 23.4728 78.013 24.1667 78.013 24.9947Z" fill="white"/>
<path d="M84.2585 21.1572H82.1762V25.3503C82.1762 26.4168 82.543 26.9496 83.2785 26.9496C83.6161 26.9496 83.8961 26.9199 84.1176 26.8605L84.1699 28.3176C83.7977 28.4589 83.3077 28.53 82.7007 28.53C81.9546 28.53 81.3716 28.2987 80.9507 27.837C80.5315 27.3744 80.3206 26.5986 80.3206 25.5087V21.1554H79.0801V19.7154H80.3206V18.1341L82.1762 17.5653V19.7154H84.2585V21.1572Z" fill="white"/>
<path fill-rule="evenodd" clip-rule="evenodd" d="M92.5337 27.2339C93.2798 26.3816 93.6538 25.2917 93.6538 23.9641C93.6538 22.6726 93.2922 21.6187 92.5674 20.8024C91.8098 19.9609 90.8058 19.5406 89.5581 19.5406C88.2635 19.5406 87.2339 19.9672 86.4709 20.8204C85.7062 21.6727 85.3252 22.7689 85.3252 24.1073C85.3252 25.3862 85.6956 26.4473 86.4364 27.2879C87.1772 28.1285 88.1705 28.5488 89.4181 28.5488C90.7128 28.5488 91.7513 28.1114 92.5337 27.2339ZM91.1867 21.9768C91.5261 22.5465 91.6935 23.2296 91.6935 24.0261C91.6935 24.8217 91.5181 25.512 91.1698 26.0925C90.7613 26.7927 90.1951 27.1437 89.4738 27.1437C88.7375 27.1437 88.1668 26.7999 87.7583 26.1105C87.4189 25.5417 87.2515 24.8586 87.2515 24.0621C87.2515 23.2413 87.4189 22.5474 87.7583 21.9768C88.1544 21.2883 88.7313 20.9436 89.4907 20.9436C90.2244 20.9436 90.7906 21.2874 91.1867 21.9768Z" fill="white"/>
<path d="M99.7954 21.4047C99.6084 21.3696 99.409 21.3516 99.1999 21.3516C98.5353 21.3516 98.0214 21.6063 97.6599 22.1166C97.3453 22.5666 97.1876 23.1354 97.1876 23.8221V28.3536H95.2993L95.317 22.437C95.317 21.4416 95.2931 20.5353 95.2461 19.7181H96.8916L96.9607 21.3705H97.013C97.2124 20.8026 97.5269 20.3454 97.9576 20.0025C98.3785 19.6938 98.8331 19.5399 99.3231 19.5399C99.4977 19.5399 99.6554 19.5525 99.7954 19.575V21.4047Z" fill="white"/>
<path fill-rule="evenodd" clip-rule="evenodd" d="M108.175 24.4968C108.222 24.2601 108.244 23.9703 108.244 23.6265C108.244 22.5492 107.993 21.642 107.495 20.9085C106.865 19.9851 105.937 19.5234 104.711 19.5234C103.464 19.5234 102.472 19.9851 101.738 20.9085C101.038 21.7734 100.688 22.8579 100.688 24.1602C100.688 25.4868 101.064 26.5443 101.816 27.3318C102.569 28.1193 103.604 28.5135 104.922 28.5135C106.018 28.5135 106.968 28.3362 107.773 27.9798L107.477 26.6478C106.788 26.9205 106.023 27.0564 105.184 27.0564C104.425 27.0564 103.807 26.8548 103.33 26.4525C102.804 26.0025 102.53 25.35 102.508 24.4968H108.175ZM106.075 21.6536C106.331 22.0685 106.454 22.5599 106.442 23.1287V23.1278H102.507C102.564 22.5482 102.751 22.0505 103.066 21.6356C103.45 21.1136 103.952 20.8535 104.57 20.8535C105.246 20.8535 105.748 21.1199 106.075 21.6536Z" fill="white"/>
<path fill-rule="evenodd" clip-rule="evenodd" d="M41.6409 11.4003C42.2656 10.8648 42.5784 10.0674 42.5784 9.00808C42.5784 8.06488 42.2886 7.34038 41.7109 6.83368C41.1951 6.38548 40.4304 6.16138 39.4158 6.16138C38.8416 6.16138 38.31 6.20278 37.8164 6.28378V12.0717C38.1948 12.1185 38.6467 12.1419 39.1748 12.1419C40.2399 12.1419 41.0622 11.8944 41.6409 11.4003ZM41.0623 7.45359C41.4203 7.82079 41.5993 8.34729 41.5993 9.03399C41.5993 9.80259 41.4043 10.3876 41.018 10.789C40.6316 11.1904 40.0831 11.3911 39.3725 11.3911C39.0685 11.3911 38.8594 11.383 38.7451 11.365V6.96489C38.9516 6.92349 39.2006 6.90369 39.493 6.90369C40.1815 6.90369 40.7043 7.08729 41.0623 7.45359Z" fill="white"/>
<path fill-rule="evenodd" clip-rule="evenodd" d="M47.2186 11.5398C47.5855 11.1204 47.7689 10.5858 47.7689 9.93334C47.7689 9.29974 47.5908 8.78134 47.2364 8.37994C46.8633 7.96684 46.3706 7.76074 45.7574 7.76074C45.1212 7.76074 44.6161 7.97044 44.2404 8.38894C43.8647 8.80744 43.6777 9.34654 43.6777 10.0035C43.6777 10.6317 43.8594 11.1528 44.2227 11.5659C44.5869 11.9799 45.0751 12.186 45.6883 12.186C46.3245 12.186 46.8341 11.9709 47.2186 11.5398ZM46.5561 8.95682C46.7218 9.23672 46.8051 9.57242 46.8051 9.96392C46.8051 10.3554 46.7191 10.6938 46.5472 10.9791C46.3469 11.3238 46.0687 11.4957 45.7142 11.4957C45.3527 11.4957 45.0727 11.3265 44.8716 10.9881C44.7059 10.7082 44.6226 10.3725 44.6226 9.98102C44.6226 9.57782 44.705 9.23672 44.8716 8.95682C45.0665 8.61842 45.3501 8.44922 45.7231 8.44922C46.0838 8.44922 46.3611 8.61842 46.5561 8.95682Z" fill="white"/>
<path d="M54.7318 7.84717L53.4248 12.0898H52.5741L52.0327 10.2475C51.8954 9.78757 51.7837 9.33037 51.6969 8.87677H51.6801C51.5994 9.34297 51.4878 9.79927 51.3442 10.2475L50.7691 12.0898H49.9087L48.6797 7.84717H49.634L50.1063 9.86407C50.2206 10.3411 50.3146 10.7956 50.3899 11.2258H50.4067C50.4758 10.8712 50.5901 10.4194 50.7514 9.87307L51.3442 7.84807H52.101L52.669 9.82987C52.8063 10.3132 52.918 10.7785 53.0039 11.2267H53.0296C53.0925 10.7902 53.1873 10.3249 53.3132 9.82987L53.82 7.84807H54.7318V7.84717Z" fill="white"/>
<path d="M59.5442 12.0895H58.6156V9.65951C58.6156 8.91071 58.3356 8.53631 57.7738 8.53631C57.4982 8.53631 57.2758 8.63891 57.103 8.84501C56.932 9.05111 56.8451 9.29411 56.8451 9.57221V12.0886H55.9165V9.05921C55.9165 8.68661 55.905 8.28251 55.8828 7.84511H56.6989L56.7423 8.50841H56.768C56.8761 8.30231 57.0374 8.13221 57.2492 7.99631C57.5009 7.83791 57.7826 7.75781 58.091 7.75781C58.4809 7.75781 58.8052 7.88561 59.0631 8.14211C59.3838 8.45621 59.5442 8.92511 59.5442 9.54791V12.0895V12.0895Z" fill="white"/>
<path d="M62.1065 12.0897H61.1787V5.90039H62.1065V12.0897Z" fill="white"/>
<path fill-rule="evenodd" clip-rule="evenodd" d="M67.0233 11.5398C67.3902 11.1204 67.5736 10.5858 67.5736 9.93334C67.5736 9.29974 67.3955 8.78134 67.041 8.37994C66.6671 7.96684 66.1753 7.76074 65.5612 7.76074C64.9259 7.76074 64.4208 7.97044 64.0451 8.38894C63.6694 8.80744 63.4824 9.34654 63.4824 10.0035C63.4824 10.6317 63.6641 11.1528 64.0274 11.5659C64.3907 11.9799 64.8789 12.186 65.493 12.186C66.1283 12.186 66.6387 11.9709 67.0233 11.5398ZM66.3599 8.95682C66.5256 9.23672 66.6089 9.57242 66.6089 9.96392C66.6089 10.3554 66.5238 10.6938 66.351 10.9791C66.1507 11.3238 65.8734 11.4957 65.5189 11.4957C65.1574 11.4957 64.8774 11.3265 64.6762 10.9881C64.5105 10.7082 64.4272 10.3725 64.4272 9.98102C64.4272 9.57782 64.5097 9.23672 64.6762 8.95682C64.8703 8.61842 65.1539 8.44922 65.5278 8.44922C65.8876 8.44922 66.1658 8.61842 66.3599 8.95682Z" fill="white"/>
<path fill-rule="evenodd" clip-rule="evenodd" d="M71.2341 12.0897H72.0679C72.0281 11.8395 72.0077 11.502 72.0077 11.0781V9.51574C72.0077 8.34574 71.4601 7.76074 70.3684 7.76074C69.803 7.76074 69.3236 7.88314 68.9355 8.12704L69.1243 8.74624C69.4379 8.53744 69.8013 8.43214 70.2133 8.43214C70.7919 8.43214 71.0808 8.71114 71.0808 9.27004V9.34924C70.3072 9.34294 69.7064 9.47704 69.2793 9.75064C68.8513 10.0242 68.6387 10.4193 68.6387 10.9377C68.6387 11.2806 68.7477 11.5695 68.9656 11.8017C69.2058 12.0573 69.5248 12.186 69.9191 12.186C70.4472 12.186 70.854 11.9907 71.1393 11.601H71.165L71.2341 12.0897ZM71.1039 9.97749V10.6318C71.1039 10.6957 71.0986 10.7515 71.0888 10.7974C71.049 11.0017 70.9417 11.1682 70.7672 11.2996C70.5935 11.4301 70.403 11.4958 70.1992 11.4958C70.0175 11.4958 69.8651 11.4409 69.7455 11.3302C69.6259 11.2195 69.5674 11.0539 69.5674 10.8325C69.5674 10.2448 70.0796 9.95949 71.1039 9.97749Z" fill="white"/>
<path fill-rule="evenodd" clip-rule="evenodd" d="M76.5218 12.0897H77.3459C77.3237 11.7405 77.3131 11.3598 77.3131 10.9467V5.90039H76.3836V8.33579H76.3659C76.1426 7.95149 75.75 7.75979 75.1891 7.75979C74.6787 7.75979 74.2498 7.95779 73.8998 8.35379C73.5383 8.77859 73.3584 9.33479 73.3584 10.0215C73.3584 10.6614 73.5241 11.1825 73.8564 11.5839C74.1887 11.9853 74.6078 12.186 75.1111 12.186C75.7411 12.186 76.1895 11.9268 76.4527 11.4084H76.4784L76.5218 12.0897ZM76.3845 9.59296V10.3004C76.3845 10.6028 76.2968 10.862 76.1178 11.0771C75.9326 11.3102 75.6889 11.4263 75.3841 11.4263C75.0447 11.4263 74.7736 11.2868 74.5724 11.0078C74.3819 10.7459 74.2871 10.4057 74.2871 9.98626C74.2871 9.54976 74.3872 9.19246 74.5848 8.91256C74.7842 8.63266 75.0554 8.49316 75.4018 8.49316C75.642 8.49316 75.8502 8.57056 76.023 8.72446C76.194 8.87836 76.3066 9.06916 76.3588 9.29596C76.3757 9.37156 76.3845 9.47056 76.3845 9.59296Z" fill="white"/>
<path fill-rule="evenodd" clip-rule="evenodd" d="M84.7362 11.5398C85.1031 11.1204 85.2865 10.5858 85.2865 9.93334C85.2865 9.29974 85.1084 8.78134 84.7539 8.37994C84.3818 7.96684 83.8882 7.76074 83.2759 7.76074C82.6388 7.76074 82.1337 7.97044 81.758 8.38894C81.3823 8.80744 81.1953 9.34654 81.1953 10.0035C81.1953 10.6317 81.377 11.1528 81.7403 11.5659C82.1053 11.9799 82.5936 12.186 83.2059 12.186C83.843 12.186 84.3516 11.9709 84.7362 11.5398ZM84.0745 8.95682C84.2402 9.23672 84.3235 9.57242 84.3235 9.96392C84.3235 10.3554 84.2367 10.6938 84.0657 10.9791C83.8654 11.3238 83.5863 11.4957 83.2318 11.4957C82.8703 11.4957 82.5903 11.3265 82.3891 10.9881C82.2234 10.7082 82.1401 10.3725 82.1401 9.98102C82.1401 9.57782 82.2225 9.23672 82.3891 8.95682C82.585 8.61842 82.8685 8.44922 83.2407 8.44922C83.6022 8.44922 83.8787 8.61842 84.0745 8.95682Z" fill="white"/>
<path d="M90.2806 12.0895H89.3529V9.65951C89.3529 8.91071 89.0729 8.53631 88.5102 8.53631C88.2346 8.53631 88.0122 8.63891 87.8403 8.84501C87.6684 9.05111 87.5824 9.29411 87.5824 9.57221V12.0886H86.6529V9.05921C86.6529 8.68661 86.6423 8.28251 86.6201 7.84511H87.4353L87.4788 8.50841H87.5045C87.6134 8.30231 87.7747 8.13221 87.9856 7.99631C88.2382 7.83791 88.5191 7.75781 88.8283 7.75781C89.2173 7.75781 89.5416 7.88561 89.7995 8.14211C90.1211 8.45621 90.2806 8.92511 90.2806 9.54791V12.0895V12.0895Z" fill="white"/>
<path d="M96.5294 8.55338H95.5068V10.6144C95.5068 11.1382 95.6885 11.4001 96.0482 11.4001C96.2148 11.4001 96.353 11.3857 96.462 11.356L96.486 12.0715C96.3025 12.1417 96.0615 12.1768 95.7647 12.1768C95.3978 12.1768 95.1125 12.0634 94.906 11.8366C94.6987 11.6098 94.5959 11.2282 94.5959 10.6927V8.55338H93.9854V7.84688H94.5959V7.06928L95.5059 6.79028V7.84598H96.5285V8.55338H96.5294Z" fill="white"/>
<path d="M101.446 12.0897H100.517V9.67769C100.517 8.91719 100.237 8.53649 99.6757 8.53649C99.245 8.53649 98.9508 8.75699 98.7895 9.19799C98.7621 9.29069 98.7461 9.40409 98.7461 9.53729V12.0888H97.8184V5.90039H98.7461V8.45729H98.7638C99.0563 7.99199 99.4754 7.75979 100.019 7.75979C100.403 7.75979 100.721 7.88759 100.974 8.14409C101.288 8.46359 101.446 8.93879 101.446 9.56699V12.0897V12.0897Z" fill="white"/>
<path fill-rule="evenodd" clip-rule="evenodd" d="M106.483 10.1953C106.505 10.0792 106.517 9.93699 106.517 9.76779C106.517 9.23859 106.394 8.79309 106.145 8.43309C105.837 7.97949 105.381 7.75269 104.78 7.75269C104.166 7.75269 103.679 7.97949 103.319 8.43309C102.975 8.85789 102.804 9.39069 102.804 10.0306C102.804 10.6822 102.987 11.2015 103.358 11.5885C103.726 11.9755 104.236 12.169 104.883 12.169C105.422 12.169 105.888 12.0817 106.284 11.9071L106.139 11.2519C105.801 11.386 105.425 11.4526 105.013 11.4526C104.641 11.4526 104.337 11.3536 104.101 11.1556C103.843 10.9342 103.71 10.6147 103.698 10.1953H106.483ZM105.451 8.79931C105.577 9.00271 105.638 9.24391 105.631 9.52381H103.697C103.727 9.23851 103.819 8.99461 103.973 8.79031C104.162 8.53381 104.409 8.40601 104.712 8.40601C105.044 8.40601 105.29 8.53741 105.451 8.79931Z" fill="white"/>
</svg>
