<svg width="125" height="36" viewBox="0 0 125 36" fill="none" xmlns="http://www.w3.org/2000/svg">
<path d="M115.508 0H8.7683C8.43218 0 8.09606 0 7.75994 0C7.48228 0 7.20462 0 6.91234 0.0141066C6.29856 0.0282132 5.68478 0.0705329 5.071 0.169279C4.45722 0.268025 3.88728 0.451411 3.31734 0.719436C2.76201 0.987461 2.26514 1.34013 1.82673 1.76332C1.38831 2.18652 1.02297 2.66614 0.745305 3.20219C0.453029 3.73824 0.277663 4.30251 0.175366 4.89498C0.0584553 5.48746 0.0292277 6.07994 0.0146138 6.67241C0 6.95455 0 7.22257 0 7.5047C0 7.82915 0 8.15361 0 8.47806V27.5219C0 27.8464 0 28.1708 0 28.4953C0 28.7774 0 29.0313 0.0146138 29.3135C0.0292277 29.906 0.0730691 30.4984 0.175366 31.0909C0.277663 31.6834 0.467642 32.2476 0.745305 32.7837C1.02297 33.3197 1.38831 33.7994 1.82673 34.2226C2.26514 34.6458 2.76201 34.9984 3.31734 35.2665C3.87266 35.5486 4.45722 35.7179 5.071 35.8307C5.68478 35.9436 6.29856 35.9718 6.91234 35.9859C7.19 35.9859 7.48228 36 7.75994 36C8.09606 36 8.43218 36 8.7683 36H115.508C115.844 36 116.18 36 116.501 36C116.779 36 117.071 36 117.349 35.9859C117.963 35.9718 118.577 35.9295 119.19 35.8307C119.804 35.7179 120.374 35.5486 120.944 35.2665C121.499 34.9984 121.996 34.6458 122.435 34.2226C122.873 33.7994 123.238 33.3197 123.516 32.7837C123.794 32.2476 123.984 31.6834 124.086 31.0909C124.203 30.4984 124.232 29.906 124.261 29.3135C124.261 29.0313 124.261 28.7774 124.261 28.4953C124.261 28.1708 124.261 27.8464 124.261 27.5219V8.46395C124.261 8.1395 124.261 7.81505 124.261 7.4906C124.261 7.22257 124.261 6.94044 124.261 6.67241C124.247 6.07994 124.203 5.48746 124.086 4.89498C123.984 4.30251 123.794 3.73824 123.516 3.20219C123.238 2.66614 122.873 2.18652 122.435 1.76332C121.996 1.34013 121.499 0.987461 120.944 0.719436C120.374 0.451411 119.804 0.268025 119.19 0.169279C118.591 0.0564263 117.963 0.0282132 117.349 0.0141066C117.071 0.0141066 116.779 0 116.501 0C116.18 0 115.844 0 115.508 0Z" fill="#C0C1C1"/>
<path d="M7.77454 35.2096C7.49688 35.2096 7.21921 35.2096 6.94155 35.1955C6.43007 35.1814 5.81629 35.1532 5.21712 35.0545C4.66179 34.9557 4.15031 34.8005 3.69728 34.5748C3.21503 34.335 2.79123 34.0388 2.41127 33.672C2.03131 33.3052 1.72442 32.8961 1.47598 32.4306C1.24216 31.9792 1.08141 31.4996 0.979111 30.9635C0.862201 30.3711 0.832973 29.7645 0.832973 29.299C0.832973 29.1156 0.818359 28.4949 0.818359 28.4949V7.50429C0.818359 7.50429 0.832973 6.8836 0.832973 6.71432C0.847587 6.2488 0.876815 5.64222 0.979111 5.04974C1.08141 4.49958 1.24216 4.01996 1.47598 3.56855C1.72442 3.10303 2.03131 2.67983 2.41127 2.32717C2.79123 1.9604 3.22964 1.65005 3.69728 1.42435C4.16492 1.19864 4.66179 1.02936 5.21712 0.944723C5.8309 0.831871 6.45929 0.817764 6.94155 0.803657L7.77454 0.789551H116.501L117.334 0.803657C117.802 0.817764 118.43 0.845977 119.044 0.944723C119.6 1.04347 120.096 1.19864 120.579 1.42435C121.046 1.66416 121.485 1.9604 121.865 2.32717C122.245 2.69394 122.551 3.10303 122.8 3.56855C123.034 4.01996 123.195 4.49958 123.297 5.03563C123.399 5.5999 123.443 6.17827 123.458 6.71432C123.458 6.96824 123.458 7.23626 123.458 7.50429C123.458 7.84285 123.458 8.15319 123.458 8.47764V27.5215C123.458 27.846 123.458 28.1563 123.458 28.4808C123.458 28.7629 123.458 29.0309 123.458 29.3131C123.443 29.835 123.399 30.4134 123.297 30.9635C123.195 31.5137 123.034 31.9933 122.8 32.4447C122.551 32.9103 122.23 33.3193 121.865 33.672C121.485 34.0388 121.046 34.3491 120.579 34.5748C120.096 34.8146 119.614 34.9698 119.044 35.0686C118.46 35.1673 117.846 35.1955 117.32 35.2096C117.057 35.2096 116.764 35.2237 116.501 35.2237H115.508L7.77454 35.2096Z" fill="black"/>
<path d="M46.0941 24.3187H41.783L40.7309 27.0977H38.8311L43.0544 16.7012H44.8519L49.1776 27.0977H47.1902L46.0941 24.3187ZM42.3238 22.9081H45.5388L44.3843 19.9316C44.2236 19.5225 44.0628 19.0711 43.9167 18.5632C43.7705 19.0005 43.6244 19.452 43.4636 19.9175L42.3238 22.9081Z" fill="white"/>
<path d="M50.0253 21.2569C50.0253 20.6786 50.0106 20.0579 49.9668 19.3667H51.6912C51.7497 19.6911 51.7935 20.0156 51.8227 20.3541C52.5388 19.6065 53.3572 19.2256 54.2779 19.2256C54.8186 19.2256 55.3154 19.3525 55.7685 19.6206C56.2215 19.8745 56.5868 20.2977 56.8791 20.862C57.1568 21.4262 57.3029 22.1457 57.3029 23.0062C57.3029 23.909 57.1422 24.6848 56.8207 25.3196C56.4992 25.9544 56.0607 26.4482 55.4762 26.7726C54.9063 27.0971 54.234 27.2664 53.4887 27.2664C52.948 27.2664 52.4073 27.1817 51.8812 26.9983V30.1864L50.0399 30.3416V21.2569H50.0253ZM54.8478 25.2209C55.2278 24.7413 55.4031 24.0218 55.4031 23.0908C55.4031 22.2303 55.2424 21.5955 54.9355 21.2005C54.6286 20.8055 54.2194 20.6221 53.6933 20.6221C53.3426 20.6221 53.0065 20.7068 52.6996 20.862C52.3927 21.0312 52.115 21.2428 51.8374 21.5109V25.6582C52.0273 25.7428 52.2319 25.8134 52.4804 25.8698C52.7288 25.9262 52.9626 25.9403 53.1964 25.9403C53.9271 25.9403 54.4678 25.7005 54.8478 25.2209Z" fill="white"/>
<path d="M58.4569 21.2569C58.4569 20.6786 58.4423 20.0579 58.3984 19.3667H60.1229C60.1813 19.6911 60.2252 20.0156 60.2544 20.3541C60.9705 19.6065 61.7889 19.2256 62.7095 19.2256C63.2502 19.2256 63.7471 19.3525 64.2001 19.6206C64.6532 19.8745 65.0185 20.2977 65.3108 20.862C65.5885 21.4262 65.7346 22.1457 65.7346 23.0062C65.7346 23.909 65.5738 24.6848 65.2523 25.3196C64.9308 25.9544 64.4924 26.4482 63.9079 26.7726C63.3379 27.0971 62.6657 27.2664 61.9204 27.2664C61.3797 27.2664 60.839 27.1817 60.3129 26.9983V30.1864L58.4715 30.3416V21.2569H58.4569ZM63.2941 25.2209C63.674 24.7413 63.8494 24.0218 63.8494 23.0908C63.8494 22.2303 63.6887 21.5955 63.3818 21.2005C63.0749 20.8055 62.6657 20.6221 62.1396 20.6221C61.7889 20.6221 61.4527 20.7068 61.1458 20.862C60.839 21.0312 60.5613 21.2428 60.2836 21.5109V25.6582C60.4736 25.7428 60.6782 25.8134 60.9266 25.8698C61.1751 25.9262 61.4089 25.9403 61.6427 25.9403C62.3734 25.9403 62.9141 25.7005 63.2941 25.2209Z" fill="white"/>
<path d="M69.1846 26.6176C68.3954 26.1944 67.7817 25.5878 67.3579 24.7979C66.9341 24.0079 66.7148 23.0769 66.7148 22.0048C66.7148 20.8339 66.9633 19.8465 67.4455 19.0283C67.9424 18.2101 68.6 17.6035 69.4476 17.1944C70.2952 16.7853 71.2451 16.5737 72.2973 16.5737C72.9111 16.5737 73.5103 16.6443 74.0656 16.7712C74.6355 16.8982 75.147 17.0816 75.6439 17.3073L75.1763 18.6756C74.1971 18.2242 73.2618 17.9985 72.385 17.9985C71.6397 17.9985 70.9821 18.1537 70.4121 18.464C69.8422 18.7744 69.4184 19.2258 69.0969 19.8182C68.79 20.4107 68.6293 21.1443 68.6293 21.9907C68.6293 22.7383 68.7462 23.3872 68.9946 23.9656C69.2284 24.544 69.6084 24.9954 70.1345 25.3339C70.646 25.6725 71.3036 25.8418 72.0927 25.8418C72.4435 25.8418 72.8088 25.8135 73.1596 25.7571C73.5103 25.7007 73.8464 25.6161 74.1679 25.5032V23.4013H71.6836V22.0048H75.9654V26.3778C75.3516 26.6599 74.7086 26.8715 74.0218 27.0126C73.3495 27.1678 72.6773 27.2383 72.0051 27.2383C70.9236 27.2524 69.9883 27.0408 69.1846 26.6176Z" fill="white"/>
<path d="M82.5695 27.1094C82.5111 26.8131 82.4672 26.4605 82.438 26.0796C82.1603 26.404 81.7804 26.6862 81.3274 26.9119C80.8743 27.1376 80.3628 27.2504 79.7929 27.2504C79.3253 27.2504 78.9161 27.1658 78.5361 26.9824C78.1562 26.8131 77.8493 26.5451 77.6301 26.1924C77.4109 25.8398 77.2939 25.4166 77.2939 24.9087C77.2939 24.1611 77.5716 23.5545 78.1415 23.1172C78.6969 22.6658 79.6322 22.4401 80.9474 22.4401C81.4443 22.4401 81.9265 22.4683 82.4088 22.5388V22.3837C82.4088 21.6924 82.2626 21.2128 81.9557 20.9307C81.6489 20.6485 81.2251 20.5075 80.6551 20.5075C80.2605 20.5075 79.8514 20.5639 79.3983 20.6768C78.9453 20.7896 78.5653 20.9166 78.2292 21.0717L77.9369 19.7739C78.2585 19.6329 78.6969 19.4918 79.2376 19.3789C79.7783 19.2661 80.3336 19.1956 80.9328 19.1956C81.6196 19.1956 82.2188 19.2943 82.7011 19.5059C83.1833 19.7034 83.5633 20.0561 83.8409 20.5498C84.1186 21.0435 84.2501 21.7065 84.2501 22.5529V25.6282C84.2501 25.9526 84.2647 26.4322 84.3086 27.0812H82.5695V27.1094ZM81.4735 25.6705C81.8535 25.4871 82.175 25.2755 82.4088 25.0075V23.5686C81.9119 23.5122 81.5027 23.484 81.1812 23.484C80.4213 23.484 79.8952 23.5968 79.6029 23.8366C79.3107 24.0764 79.1645 24.3868 79.1645 24.7959C79.1645 25.1768 79.2668 25.4589 79.486 25.6423C79.6906 25.8257 79.9829 25.9244 80.3482 25.9244C80.7136 25.9385 81.0935 25.8398 81.4735 25.6705Z" fill="white"/>
<path d="M85.8438 25.2498V16.0947L87.6705 15.9536V24.9395C87.6705 25.2639 87.7289 25.5037 87.8458 25.6448C87.9627 25.7859 88.1527 25.8564 88.4012 25.8564C88.5181 25.8564 88.6788 25.8282 88.8834 25.7718L89.1026 27.0414C88.9273 27.1119 88.7227 27.1683 88.4596 27.1965C88.2112 27.2389 87.9774 27.253 87.7435 27.253C86.4868 27.253 85.8438 26.59 85.8438 25.2498Z" fill="white"/>
<path d="M90.418 25.2498V16.0947L92.2447 15.9536V24.9395C92.2447 25.2639 92.3032 25.5037 92.4201 25.6448C92.537 25.7859 92.727 25.8564 92.9754 25.8564C93.0923 25.8564 93.2531 25.8282 93.4576 25.7718L93.6769 27.0414C93.5015 27.1119 93.2969 27.1683 93.0338 27.1965C92.7854 27.2389 92.5516 27.253 92.3178 27.253C91.061 27.253 90.418 26.59 90.418 25.2498Z" fill="white"/>
<path d="M101.291 23.4568H96.0444C96.1321 25.079 96.9359 25.8831 98.4411 25.8831C98.8211 25.8831 99.201 25.8408 99.5956 25.7562C99.9902 25.6715 100.37 25.5446 100.735 25.4035L101.13 26.6167C100.239 27.0399 99.2302 27.2515 98.105 27.2515C97.2574 27.2515 96.5267 27.0963 95.9421 26.7859C95.3576 26.4756 94.9192 26.0242 94.6269 25.4458C94.3346 24.8674 94.1885 24.1621 94.1885 23.3298C94.1885 22.4693 94.3492 21.7358 94.6561 21.1151C94.963 20.4944 95.4014 20.0289 95.9567 19.7044C96.5121 19.38 97.1551 19.2107 97.8858 19.2107C98.6457 19.2107 99.2741 19.38 99.7856 19.7185C100.297 20.0571 100.677 20.5226 100.911 21.0869C101.159 21.6511 101.276 22.2859 101.276 22.9772V23.4568H101.291ZM99.4933 22.3283C99.4641 21.7076 99.3033 21.242 99.011 20.9458C98.7188 20.6355 98.3388 20.4803 97.8565 20.4803C97.3889 20.4803 97.0089 20.6355 96.6874 20.9458C96.3805 21.2561 96.176 21.7217 96.0883 22.3283H99.4933Z" fill="white"/>
<path d="M102.767 21.3134C102.767 20.8902 102.753 20.2413 102.709 19.3667H104.433C104.463 19.5783 104.492 19.8463 104.521 20.1425C104.55 20.4388 104.565 20.6786 104.58 20.8761C104.799 20.5375 105.003 20.2554 105.208 20.0156C105.413 19.7757 105.661 19.5924 105.924 19.4513C106.202 19.3102 106.509 19.2256 106.859 19.2256C107.137 19.2256 107.385 19.2538 107.59 19.3102L107.356 20.8478C107.181 20.7914 106.976 20.7632 106.757 20.7632C106.319 20.7632 105.953 20.8761 105.632 21.0877C105.31 21.2993 104.96 21.6519 104.594 22.1457V27.1253H102.767V21.3134V21.3134Z" fill="white"/>
<path d="M108.685 30.2715C108.422 30.2292 108.203 30.1728 108.027 30.1164L108.363 28.8185C108.48 28.8468 108.641 28.8891 108.831 28.9173C109.021 28.9455 109.196 28.9596 109.372 28.9596C110.19 28.9596 110.789 28.4518 111.199 27.4502L111.315 27.1681L108.363 19.353H110.336L111.827 23.712C112.075 24.4596 112.222 25.0239 112.295 25.433C112.441 24.8687 112.601 24.3185 112.791 23.7543L114.297 19.353H116.153L113.201 27.1963C112.923 27.9439 112.616 28.5364 112.295 28.9878C111.973 29.4392 111.593 29.7778 111.155 30.0035C110.716 30.2292 110.19 30.328 109.562 30.328C109.24 30.3421 108.963 30.328 108.685 30.2715Z" fill="white"/>
<path d="M38.8174 6.58569H42.1347L42.0471 7.36156H39.7965V8.85686H41.9155V9.57629H39.7965V11.2268H42.164L42.0763 12.0026H38.8174V6.58569V6.58569Z" fill="white"/>
<path d="M44.4145 9.25141L42.6608 6.59937H43.7569L44.9406 8.54608L46.1828 6.59937H47.2496L45.5105 9.2232L47.3811 12.0304H46.2558L44.9113 9.90032L43.5523 12.0304H42.5293L44.4145 9.25141Z" fill="white"/>
<path d="M48.127 6.58569H49.6468C50.3629 6.58569 50.9036 6.72676 51.2835 7.00889C51.6635 7.29102 51.8535 7.70011 51.8535 8.22206C51.8535 8.58883 51.7658 8.89917 51.605 9.1672C51.4297 9.43522 51.1959 9.64682 50.889 9.78788C50.5821 9.92895 50.2313 9.99948 49.8514 9.99948C49.6322 9.99948 49.3837 9.97127 49.1207 9.92895V12.0167H48.1562V6.58569H48.127ZM50.5675 9.01202C50.7721 8.82864 50.8744 8.57472 50.8744 8.25027C50.8744 7.91171 50.7721 7.6719 50.5529 7.53083C50.3483 7.38977 50.0268 7.30513 49.6176 7.30513H49.1061V9.23773C49.3545 9.28005 49.5299 9.29415 49.6614 9.29415C50.056 9.28005 50.3629 9.19541 50.5675 9.01202Z" fill="white"/>
<path d="M52.8017 6.58569H53.7662V11.2126H56.0898L56.0022 12.0167H52.7871V6.58569H52.8017Z" fill="white"/>
<path d="M57.581 11.7489C57.1718 11.5232 56.8503 11.1988 56.6311 10.7897C56.4119 10.3806 56.3096 9.90097 56.3096 9.35081C56.3096 8.77244 56.4265 8.27871 56.6603 7.85551C56.8941 7.43231 57.2302 7.09375 57.6687 6.86805C58.1071 6.62823 58.6186 6.51538 59.2177 6.51538C59.7877 6.51538 60.2699 6.62823 60.6791 6.85394C61.0883 7.07965 61.3952 7.4041 61.6144 7.81319C61.8336 8.22228 61.9359 8.70191 61.9359 9.23796C61.9359 9.81633 61.819 10.3242 61.5852 10.7615C61.3514 11.1847 61.0152 11.5232 60.5768 11.7489C60.1384 11.9746 59.6269 12.1016 59.0424 12.1016C58.4724 12.0875 57.9902 11.9746 57.581 11.7489ZM60.0946 11.0859C60.3722 10.9166 60.5768 10.6627 60.7083 10.3524C60.8399 10.042 60.9129 9.68937 60.9129 9.29438C60.9129 8.8994 60.8545 8.56084 60.7376 8.25049C60.6207 7.94015 60.4307 7.70034 60.1676 7.51695C59.9046 7.33356 59.5685 7.24893 59.1593 7.24893C58.7647 7.24893 58.4286 7.34767 58.1509 7.53106C57.8733 7.71444 57.6687 7.95426 57.5371 8.2646C57.4056 8.57495 57.3325 8.91351 57.3325 9.28028C57.3325 9.67526 57.391 10.0279 57.5225 10.3383C57.654 10.6486 57.844 10.8884 58.1217 11.0718C58.3847 11.2552 58.7209 11.3398 59.1154 11.3398C59.4954 11.354 59.8169 11.2552 60.0946 11.0859Z" fill="white"/>
<path d="M63.0029 6.58569H64.7566C65.3996 6.58569 65.8819 6.71265 66.218 6.95246C66.5541 7.20638 66.7148 7.55905 66.7148 8.01046C66.7148 8.29259 66.6564 8.54651 66.5395 8.77221C66.4226 8.99792 66.2764 9.1672 66.1011 9.30826C65.9257 9.44933 65.7503 9.54807 65.5603 9.61861L67.2848 12.0167H66.1595L64.6981 9.85842H63.9821V12.0167H63.0175V6.58569H63.0029ZM64.5228 9.15309C64.7566 9.15309 64.9612 9.11077 65.1512 9.02613C65.3265 8.94149 65.4727 8.81453 65.575 8.64525C65.6773 8.49008 65.7211 8.29259 65.7211 8.08099C65.7211 7.81296 65.6334 7.61547 65.458 7.48851C65.2827 7.36155 65.0196 7.30513 64.6835 7.30513H63.9821V9.1672H64.5228V9.15309Z" fill="white"/>
<path d="M68.0449 6.58569H71.3623L71.2746 7.36156H69.024V8.85686H71.1431V9.57629H69.024V11.2268H71.3915L71.3038 12.0026H68.0449V6.58569V6.58569Z" fill="white"/>
<path d="M74.9717 6.58569H75.9362V12.0167H74.9717V6.58569Z" fill="white"/>
<path d="M78.5086 7.37566H76.7695L76.8572 6.58569H81.2267L81.1391 7.37566H79.4877V12.0167H78.5232V7.37566H78.5086Z" fill="white"/>
<path d="M85.4355 11.7489C85.0263 11.5232 84.7048 11.1988 84.4856 10.7897C84.2664 10.3806 84.1641 9.90097 84.1641 9.35081C84.1641 8.77244 84.281 8.27871 84.5148 7.85551C84.7486 7.43231 85.0847 7.09375 85.5231 6.86805C85.9616 6.62823 86.473 6.51538 87.0722 6.51538C87.6421 6.51538 88.1244 6.62823 88.5336 6.85394C88.9428 7.07965 89.2497 7.4041 89.4689 7.81319C89.6881 8.22228 89.7904 8.70191 89.7904 9.23796C89.7904 9.81633 89.6735 10.3242 89.4396 10.7615C89.2058 11.1847 88.8697 11.5232 88.4313 11.7489C87.9929 11.9746 87.4814 12.1016 86.8968 12.1016C86.3415 12.0875 85.8446 11.9746 85.4355 11.7489ZM87.949 11.0859C88.2267 10.9166 88.4313 10.6627 88.5628 10.3524C88.6943 10.042 88.7674 9.68937 88.7674 9.29438C88.7674 8.8994 88.709 8.56084 88.592 8.25049C88.4751 7.94015 88.2852 7.70034 88.0221 7.51695C87.7591 7.33356 87.4229 7.24893 87.0138 7.24893C86.6192 7.24893 86.2831 7.34767 86.0054 7.53106C85.7277 7.71444 85.5231 7.95426 85.3916 8.2646C85.2601 8.57495 85.187 8.91351 85.187 9.28028C85.187 9.67526 85.2455 10.0279 85.377 10.3383C85.5085 10.6486 85.6985 10.8884 85.9762 11.0718C86.2392 11.2552 86.5753 11.3398 86.9699 11.3398C87.3499 11.354 87.686 11.2552 87.949 11.0859Z" fill="white"/>
<path d="M90.8564 6.58569H91.9671L94.7437 10.7895C94.7145 10.3945 94.7145 10.0277 94.7145 9.68914V6.58569H95.6205V12.0167H94.5391L91.7187 7.74243C91.7479 8.22206 91.7625 8.65936 91.7625 9.02613V12.0167H90.8564V6.58569Z" fill="white"/>
<path fill-rule="evenodd" clip-rule="evenodd" d="M25.1842 6.53638H14.8084C9.92738 6.53638 8.12988 8.25738 8.12988 12.9831V22.9988C8.12988 27.7104 9.91277 29.4455 14.8084 29.4455H25.1842C30.0652 29.4455 31.8627 27.7245 31.8627 22.9988V12.9831C31.8627 8.25738 30.0798 6.53638 25.1842 6.53638Z" fill="#C8102E"/>
<path d="M12.8487 17.9948H13.4771V20.9854H12.8487V19.7722H11.4311V20.9854H10.8027V17.9948H11.4311V19.208H12.8487V17.9948ZM16.3852 19.7017C16.3852 20.1813 16.1368 20.4494 15.6838 20.4494C15.2307 20.4494 14.9677 20.1813 14.9677 19.6876V17.9948H14.3393V19.7017C14.3393 20.5481 14.8215 21.0277 15.6691 21.0277C16.5167 21.0277 17.0136 20.534 17.0136 19.6735V17.9807H16.3852V19.7017ZM23.6629 20.0544L22.9614 17.9948H22.45L21.7485 20.0544L21.0616 17.9948H20.3894L21.4708 20.9854H21.9969L22.6984 19.0246L23.3999 20.9854H23.9259L25.0074 17.9948H24.3498L23.6629 20.0544ZM26.118 19.7017H27.2579V19.1516H26.118V18.545H27.784V17.9948H25.5042V20.9854H27.8425V20.4353H26.118V19.7017ZM28.6024 20.9854H29.2162V17.9948H28.6024V20.9854ZM18.2558 20.3647L17.9781 20.9854H17.3351L18.6942 17.9948H19.2495L20.6086 20.9854H19.951L19.6733 20.3647H18.2558ZM18.4896 19.8146H19.4395L18.9572 18.7425L18.4896 19.8146Z" fill="white"/>
<path d="M20.0092 14.1865C17.8317 14.1865 16.0635 12.4796 16.0635 10.3777H16.6188C16.6188 12.1833 18.1386 13.6504 20.0092 13.6504C21.8798 13.6504 23.3996 12.1833 23.3996 10.3777H23.9549C23.9549 12.4655 22.1867 14.1865 20.0092 14.1865Z" fill="white"/>
</svg>
