<svg xmlns="http://www.w3.org/2000/svg" viewBox="0 0 24 24">
  <rect width="24" height="24" fill="#28B16D" rx="12"/>
  <path fill="#fff" d="M5 16.4c0-.65 1.6-1.21 3.9-1.46l.35.3c-1.63.2-2.76.61-2.76 1.1 0 .67 2.28 1.23 5.09 1.23 2.8 0 5.08-.55 5.08-1.24 0-.45-1-.85-2.5-1.06l.27-.3c2.2.25 3.72.8 3.7 1.43 0 .88-2.93 1.6-6.56 1.6C7.94 18 5 17.28 5 16.4zm6.17-.4l-5.09-4.25a.29.29 0 0 1-.02-.42l1.59-1.6c.05-.05.13-.09.22-.1.08 0 .17.03.23.08l2.8 2.34a.31.31 0 0 0 .22.07.33.33 0 0 0 .22-.1l5.32-5.91c.06-.05.13-.1.22-.1.08 0 .17.02.23.07L18.9 7.4c.06.05.1.12.1.2 0 .08-.02.16-.07.22l-7.31 8.14a.3.3 0 0 1-.22.1h-.03a.32.32 0 0 1-.2-.07z"/>
</svg>
