<svg xmlns="http://www.w3.org/2000/svg" width="36" height="36">
    <view id="facebook" viewBox="0 0 36 36"/>
    <view id="facebook_hover" viewBox="50 0 36 36"/>
    <view id="twitter" viewBox="100 0 36 36"/>
    <view id="twitter_hover" viewBox="150 0 36 36"/>
    <view id="linkedin" viewBox="200 0 36 36"/>
    <view id="linkedin_hover" viewBox="250 0 36 36"/>
    <view id="instagram" viewBox="300 0 36 36"/>
    <view id="instagram_hover" viewBox="350 0 36 36"/>
    <view id="youtube" viewBox="400 0 64 64"/>
    <view id="youtube_hover" viewBox="480 0 64 64"/>
    <g>
        <defs><style>.cls-1f{fill:#4d4d4d;}.cls-2f{fill:#2d2d2d;fill-rule:evenodd;}</style></defs>
        <circle class="cls-1f" cx="18" cy="18" r="18"/>
        <path class="cls-2f" d="M15.09,28.76V19.35h-2V16.11h2V14.16c0-2.65,1.13-4.22,4.32-4.22h2.66v3.24H20.41c-1.25,0-1.33.45-1.33,1.3v1.62h3l-.35,3.24H19.08v9.41Z"/>
    </g>
    <g transform="translate(50)">
        <defs><style>.cls-1fh{fill:#3b5b9b;}.cls-2fh{fill:#fff;fill-rule:evenodd;}</style></defs>
        <circle class="cls-1fh" cx="17.78" cy="18" r="18"/>
        <path class="cls-2fh" d="M14.87,28.76V19.35h-2V16.11h2V14.16c0-2.65,1.13-4.22,4.32-4.22h2.66v3.24H20.19c-1.25,0-1.33.45-1.33,1.3v1.62h3l-.35,3.24H18.86v9.41Z"/>
    </g>
    <g transform="translate(100)">
        <rect width="35" height="35" fill="#4d4d4d" rx="17.5"/>
        <path fill="#2d2d2d" d="M23 9h2.9l-6.4 7.2L27 26H21l-4.5-6-5.2 6h-3l6.8-7.7L8.1 9h6l4 5.4L23 9zm-1 15.3h1.6L13.2 10.6h-1.7l10.4 13.7z"/>
    </g>
    <g transform="translate(150)">
        <rect width="35" height="35" fill="#000" rx="17.5"/>
        <path fill="#fff" d="M23 9h2.9l-6.4 7.2L27 26H21l-4.5-6-5.2 6h-3l6.8-7.7L8.1 9h6l4 5.4L23 9zm-1 15.3h1.6L13.2 10.6h-1.7l10.4 13.7z"/>
    </g>
    <g transform="translate(200)">
        <defs><style>.cls-1l{fill:#4d4d4d;}.cls-2l{fill:#2d2d2d;fill-rule:evenodd;}</style></defs>
        <circle class="cls-1l" cx="18" cy="18" r="18"/><path class="cls-2l" d="M26.18,25.18H22.57V19.43c0-1.51-.57-2.53-1.81-2.53A1.85,1.85,0,0,0,19,18.26a2.77,2.77,0,0,0-.08.91v6H15.37s0-10.19,0-11.12H19v1.74A3.24,3.24,0,0,1,22.13,14c2.27,0,4,1.6,4,5ZM11.74,12.67h0a1.84,1.84,0,0,1-1.9-1.93,1.86,1.86,0,0,1,1.95-1.93,1.85,1.85,0,0,1,1.92,1.93A1.86,1.86,0,0,1,11.74,12.67Zm-1.51,1.39h3.19V25.18H10.23Z"/>
    </g>
    <g transform="translate(250)">
        <defs><style>.cls-1lh{fill:#0173b2;}.cls-2lh{fill:#fff;fill-rule:evenodd;}</style></defs>
        <circle class="cls-1lh" cx="18" cy="18" r="18"/>
        <path class="cls-2lh" d="M26.18,25.18H22.57V19.43c0-1.51-.57-2.53-1.81-2.53A1.85,1.85,0,0,0,19,18.26a2.77,2.77,0,0,0-.08.91v6H15.37s0-10.19,0-11.12H19v1.74A3.24,3.24,0,0,1,22.13,14c2.27,0,4,1.6,4,5ZM11.74,12.67h0a1.84,1.84,0,0,1-1.9-1.93,1.86,1.86,0,0,1,1.95-1.93,1.85,1.85,0,0,1,1.92,1.93A1.86,1.86,0,0,1,11.74,12.67Zm-1.51,1.39h3.19V25.18H10.23Z"/>
    </g>
    <g transform="translate(300)">
        <circle cx="18" cy="18.1" r="18" fill="#4d4d4d"/>
        <path fill="#2d2d2d" d="M18 15.2c1.6 0 2.8 1.2 2.8 2.8s-1.2 2.8-2.8 2.8-2.8-1.2-2.8-2.8c0-1.5 1.3-2.8 2.8-2.8zm0-1.5c-2.4 0-4.3 1.9-4.3 4.3s1.9 4.3 4.3 4.3 4.3-1.9 4.3-4.3a4.2 4.2 0 0 0-4.3-4.3zm4.5-1.2c-.6 0-1 .4-1 1s.4 1 1 1 1-.4 1-1-.4-1-1-1zm-5.2-1.4h.8c2.2 0 2.5 0 3.4.1.8.1 1.3.1 1.6.3.4.1.6.4.9.6.3.3.5.6.6.9.1.3.3.7.3 1.6.1.9.1 1.1.1 3.4s0 2.5-.1 3.4c-.1.8-.1 1.3-.3 1.6-.1.4-.4.6-.6.9-.3.3-.6.5-.9.6s-.7.3-1.6.3c-.9.1-1.2.1-3.4.1s-2.5 0-3.4-.1c-.8-.1-1.3-.1-1.6-.3-.4-.1-.6-.4-.9-.6-.3-.3-.5-.6-.6-.9s-.3-.7-.3-1.6c-.1-.9-.1-1.2-.1-3.4s0-2.5.1-3.4c.1-.8.1-1.3.3-1.6.1-.4.4-.6.6-.9.3-.3.6-.5.9-.6.3-.1.7-.3 1.6-.3.7-.1 1-.1 2.6-.1zm.7-1.5c-2.3 0-2.6 0-3.5.1s-1.5.2-2 .4c-.6.2-1 .5-1.5 1s-.8.9-1 1.5c-.2.5-.4 1.2-.4 2-.1.9-.1 1.2-.1 3.5s0 2.6.1 3.5.2 1.5.4 2c.2.6.5 1 1 1.5s.9.8 1.5 1c.5.2 1.2.4 2 .4.9.1 1.2.1 3.5.1s2.6 0 3.5-.1 1.5-.2 2-.4c.6-.2 1-.5 1.5-1s.8-.9 1-1.5c.2-.5.4-1.2.4-2 .1-.9.1-1.2.1-3.5s0-2.6-.1-3.5-.2-1.5-.4-2c-.2-.6-.5-1-1-1.5s-.9-.8-1.5-1c-.5-.2-1.2-.4-2-.4-.9-.1-1.2-.1-3.5-.1z"/>
    </g>
    <g transform="translate(350)">
        <radialGradient id="a" cx="14.92" cy="32.49" r=".56" gradientTransform="matrix(36 0 0 -36 -529.2 1201.78)" gradientUnits="userSpaceOnUse">
            <stop offset="0" stop-color="#fdd744"/>
            <stop offset=".1" stop-color="#fdd744"/>
            <stop offset=".5" stop-color="#fb3b30"/>
            <stop offset="1" stop-color="#b8199a"/>
        </radialGradient>
        <circle cx="18" cy="18.1" r="18" fill="url(#a)"/>
        <radialGradient id="b" cx="14.7" cy="33.4" r=".56" gradientTransform="matrix(36 0 0 -36 -529.2 1201.78)" gradientUnits="userSpaceOnUse">
            <stop offset="0" stop-color="#2b5abb"/>
            <stop offset=".13" stop-color="#2b5abb"/>
            <stop offset="1" stop-color="#5100ff" stop-opacity="0"/>
        </radialGradient>
        <circle cx="18" cy="18.1" r="18" fill="url(#b)"/>
        <path fill="#fff" d="M18 15.2c1.6 0 2.8 1.2 2.8 2.8 0 1.6-1.2 2.8-2.8 2.8s-2.8-1.2-2.8-2.8c0-1.5 1.3-2.8 2.8-2.8zm0-1.5c-2.4 0-4.3 1.9-4.3 4.3s1.9 4.3 4.3 4.3 4.3-1.9 4.3-4.3c.1-2.3-1.9-4.3-4.3-4.3zm4.5-1.1c-.6 0-1 .4-1 1s.4 1 1 1 1-.4 1-1-.4-1-1-1zm-5.2-1.5h.8c2.2 0 2.5 0 3.4.1.8.1 1.3.1 1.6.3.4.1.6.4.9.6.3.3.5.6.6.9.1.3.3.7.3 1.6.1.9.1 1.2.1 3.4s0 2.5-.1 3.4c-.1.8-.1 1.3-.3 1.6-.1.4-.4.6-.6.9-.3.3-.6.5-.9.6-.3.1-.7.3-1.6.3-.9.1-1.2.1-3.4.1s-2.5 0-3.4-.1c-.8-.1-1.3-.1-1.6-.3-.4-.1-.6-.4-.9-.6-.3-.3-.5-.6-.6-.9-.1-.3-.3-.7-.3-1.6-.1-.9-.1-1.2-.1-3.4s0-2.5.1-3.4c.1-.8.1-1.3.3-1.6.1-.4.4-.6.6-.9.3-.3.6-.5.9-.6.3-.1.7-.3 1.6-.3.7 0 1-.1 2.6-.1zm.7-1.5c-2.3 0-2.6 0-3.5.1-.9.1-1.5.2-2 .4-.6.2-1 .5-1.5 1s-.8.9-1 1.5c-.2.5-.4 1.2-.4 2-.1.9-.1 1.2-.1 3.5s0 2.6.1 3.5c.1.9.2 1.5.4 2 .2.6.5 1 1 1.5s.9.8 1.5 1c.5.2 1.2.4 2 .4.9.1 1.2.1 3.5.1s2.6 0 3.5-.1c.9-.1 1.5-.2 2-.4.6-.2 1-.5 1.5-1s.8-.9 1-1.5c.2-.5.4-1.2.4-2 .1-.9.1-1.2.1-3.5s0-2.6-.1-3.5c-.1-.9-.2-1.5-.4-2-.2-.6-.5-1-1-1.5s-.9-.8-1.5-1c-.5-.2-1.2-.4-2-.4-.9-.1-1.2-.1-3.5-.1z"/>
    </g>
    <g transform="translate(400)">
        <circle fill="#4D4D4E" cx="32" cy="32" r="32"/>
	    <path fill="#2D2D2D" d="M51.1,24.3c0-3.2-2.6-5.7-5.7-5.7c0,0,0,0,0,0H18.6c-3.2,0-5.7,2.6-5.7,5.7c0,0,0,0,0,0v15.3  c0,3.2,2.6,5.7,5.7,5.7c0,0,0,0,0,0h26.8c3.2,0,5.7-2.6,5.7-5.7V24.3z M28.2,38.5V24.1l10.9,7.2L28.2,38.5z"/>
    </g>
    <g transform="translate(480)">
        <circle fill="#E52D27" cx="32" cy="32" r="32"/>
	    <path fill="#FFFFFF" d="M51.1,24.3c0-3.2-2.6-5.7-5.7-5.7c0,0,0,0,0,0H18.6c-3.2,0-5.7,2.6-5.7,5.7c0,0,0,0,0,0v15.3  c0,3.2,2.6,5.7,5.7,5.7c0,0,0,0,0,0h26.8c3.2,0,5.7-2.6,5.7-5.7V24.3z M28.2,38.5V24.1l10.9,7.2L28.2,38.5z"/>
    </g>
</svg>
